<svg id="Capa_1" data-name="Capa 1" xmlns="http://www.w3.org/2000/svg" viewBox="0 0 914.38 1080"><defs><style>.cls-1{fill:#6d6d6d;}</style></defs><title>Mesa de trabajo 1</title><path class="cls-1" d="M647.05,0c6.12,5.89,5.11,11.89,1.28,18.8-14.61,26.36-28.84,52.94-43.73,80.38,59.29,31.49,104.14,76.43,131.22,137.89,15.17,34.44,22.53,72.36,20.37,101.06H156.36C160.59,228.21,215.6,151.9,309.45,98.79c-6-11.16-12.09-22.47-18.19-33.75-8.52-15.75-16.89-31.59-25.69-47.18-3.77-6.68-3.9-12.41,1.77-17.86h8.44c3.52,5.6,7.31,11.05,10.5,16.83,13.52,24.48,26.86,49.07,40.48,74,87.39-36.24,174.27-36,260.92-.1,5.8-10.59,10.93-20.16,16.26-29.61,11.5-20.4,23.11-40.75,34.67-61.12ZM319.85,230.07A25.56,25.56,0,0,0,345.34,206c.53-13.35-11.34-25.77-24.83-26-13.05-.2-24.45,11.24-24.68,24.78S306.5,229.87,319.85,230.07Zm274.77,0c13.33-.25,24.22-11.8,23.93-25.39s-11.73-25-24.75-24.71S569.12,192,569,205C569,218.61,580.9,230.33,594.62,230.07Z"/><path class="cls-1" d="M635.79,865.83V882.3c-.33,46.37.42,92.79-1.4,139.11-1.29,32.81-31,58.13-64.68,58.58-33.12.45-62.08-23.71-66.46-55.78a165.91,165.91,0,0,1-1.39-22.05c-.13-44.95-.06-89.9-.06-135.59H412.55v11.35c0,43.94.25,87.87-.08,131.8-.29,37.54-24.12,65.55-58.52,69.75-38.17,4.66-72.73-23.49-73.88-62-1.37-46-1.06-92.07-1.47-138.11V865.09c-19.06,0-36.94.76-54.73-.17-34.31-1.78-62.29-30.71-64.1-65.19-.22-4.21-.3-8.43-.3-12.65V362.94H754.4c.19,3.74.51,7.14.51,10.54,0,138.48-.47,277,.32,415.44.23,41.79-26.34,69.61-55.09,74.69-16.42,2.9-33.58,1.65-50.41,2.2C645.58,865.94,641.42,865.83,635.79,865.83Z"/><path class="cls-1" d="M781.82,555.05c0-48.5-1-97,.33-145.49.88-33.18,29.9-58.84,63.59-59.46,35.28-.66,64,23.87,67.45,57.86a196.45,196.45,0,0,1,1.09,20q.11,130.23.1,260.47c0,24.58-7,45.76-27.68,60.63s-43.11,17.28-65.85,7.11-38-28-38.62-53.49c-1.19-49.17-.34-98.4-.34-147.6Z"/><path class="cls-1" d="M132.59,556.23c0,48.5,1,97-.32,145.47-.9,33.9-29.86,59.56-64.09,60-35,.47-63.48-24.37-67-58.49a196.44,196.44,0,0,1-1.08-20C0,596.44.17,509.63,0,422.82c-.06-29.62,11-52.63,38.07-66.27,40.72-20.54,92.36,7.73,94.09,53.17C134,458.49,132.58,507.39,132.59,556.23Z"/></svg>