<?xml version="1.0" encoding="utf-8"?>
<!-- Generator: Adobe Illustrator 23.0.5, SVG Export Plug-In . SVG Version: 6.00 Build 0)  -->
<svg version="1.1" id="Capa_1" xmlns="http://www.w3.org/2000/svg" xmlns:xlink="http://www.w3.org/1999/xlink" x="0px" y="0px"
	 viewBox="0 0 914.4 1080" style="enable-background:new 0 0 914.4 1080;" xml:space="preserve">
<title>Mesa de trabajo 1</title>
<path d="M647,0c6.1,5.9,5.1,11.9,1.3,18.8c-14.6,26.4-28.8,52.9-43.7,80.4c59.3,31.5,104.1,76.4,131.2,137.9
	c15.2,34.4,22.5,72.4,20.4,101.1H156.4c4.2-109.9,59.2-186.2,153.1-239.3c-6-11.2-12.1-22.5-18.2-33.8
	c-8.5-15.8-16.9-31.6-25.7-47.2c-3.8-6.7-3.9-12.4,1.8-17.9h8.4c3.5,5.6,7.3,11.1,10.5,16.8c13.5,24.5,26.9,49.1,40.5,74
	c87.4-36.2,174.3-36,260.9-0.1c5.8-10.6,10.9-20.2,16.3-29.6C615.4,40.7,627,20.4,638.6,0H647z M319.9,230.1
	c13.5,0,24.7-10.6,25.5-24.1c0.5-13.4-11.3-25.8-24.8-26c-13-0.2-24.5,11.2-24.7,24.8S306.5,229.9,319.9,230.1z M594.6,230.1
	c13.3-0.3,24.2-11.8,23.9-25.4s-11.7-25-24.8-24.7s-24.7,12-24.8,25C569,218.6,580.9,230.3,594.6,230.1z"/>
<path d="M635.8,865.8c0,6.7,0,11.6,0,16.5c-0.3,46.4,0.4,92.8-1.4,139.1c-1.3,32.8-31,58.1-64.7,58.6c-33.1,0.4-62.1-23.7-66.5-55.8
	c-1-7.3-1.4-14.7-1.4-22c-0.1-45-0.1-89.9-0.1-135.6h-89.2v11.3c0,43.9,0.3,87.9-0.1,131.8c-0.3,37.5-24.1,65.5-58.5,69.8
	c-38.2,4.7-72.7-23.5-73.9-62c-1.4-46-1.1-92.1-1.5-138.1c0-4.1,0-8.3,0-14.3c-19.1,0-36.9,0.8-54.7-0.2
	c-34.3-1.8-62.3-30.7-64.1-65.2c-0.2-4.2-0.3-8.4-0.3-12.7c0-137.4,0-274.8,0-412.3v-11.9h594.9c0.2,3.7,0.5,7.1,0.5,10.5
	c0,138.5-0.5,277,0.3,415.4c0.2,41.8-26.3,69.6-55.1,74.7c-16.4,2.9-33.6,1.7-50.4,2.2C645.6,865.9,641.4,865.8,635.8,865.8z"/>
<path d="M781.8,555c0-48.5-1-97,0.3-145.5c0.9-33.2,29.9-58.8,63.6-59.5c35.3-0.7,64,23.9,67.5,57.9c0.7,6.6,1.1,13.3,1.1,20
	c0.1,86.8,0.1,173.6,0.1,260.5c0,24.6-7,45.8-27.7,60.6s-43.1,17.3-65.8,7.1s-38-28-38.6-53.5C781,653.5,781.9,604.3,781.8,555
	L781.8,555z"/>
<path d="M132.6,556.2c0,48.5,1,97-0.3,145.5c-0.9,33.9-29.9,59.6-64.1,60c-35,0.5-63.5-24.4-67-58.5c-0.7-6.6-1.1-13.3-1.1-20
	C0,596.4,0.2,509.6,0,422.8c-0.1-29.6,11-52.6,38.1-66.3c40.7-20.5,92.4,7.7,94.1,53.2C134,458.5,132.6,507.4,132.6,556.2z"/>
</svg>
