<svg id="Capa_1" data-name="Capa 1" xmlns="http://www.w3.org/2000/svg" viewBox="0 0 879.75 1080"><defs><style>.cls-1{fill:#6d6d6d;}</style></defs><title>Mesa de trabajo 1</title><path class="cls-1" d="M0,618.75V553.5c1.52-10.71,2.94-21.44,4.57-32.14,12.21-79.79,43.77-149.66,108.27-200.7,60.67-48,129.52-68.75,206.31-49.84C348,277.94,375.83,290,403.61,301c28.65,11.43,56.58,12,85.12.15,20-8.3,40.3-16.19,60.83-23.2C644,245.73,731.24,258.52,809.41,321.6c16,12.89,28.78,29.69,43.45,45.11C684,472.54,698.65,713.19,879.75,792v4.5c-1.46,3.36-3.15,6.65-4.36,10.1C845.56,891.66,798.88,966.51,737,1031.65c-35.91,37.77-80.06,55.49-132.29,43.2-21.66-5.11-42.48-14.26-63.22-22.71q-74.49-30.36-150.28-4.41Q344.06,1063.81,297,1080H265.5c-34.18-8.17-62.06-26.73-85.51-52.33C89.55,928.93,31.36,814.15,8.8,681.83,5.23,660.91,2.9,639.78,0,618.75Z"/><path class="cls-1" d="M654.75,0C667,85,609.64,205.82,496.37,241.24c-14.8,4.63-30.77,5.74-46.29,7.81-9.47,1.26-13.77-3-14.09-13.4-1.63-52.72,16.94-98.66,48-139.6,38.67-50.91,89.8-82.91,153.22-94.28a18.32,18.32,0,0,0,4-1.77Z"/></svg>