<svg id="Capa_1" data-name="Capa 1" xmlns="http://www.w3.org/2000/svg" viewBox="0 0 1080 1080"><defs><style>.cls-1{fill:#6d6d6d;}</style></defs><title>Mesa de trabajo 1</title><path class="cls-1" d="M48.55,514.68V47.76H515.46c0,1.78-.06,3.56-.06,5.34V514.42H54.26C52.36,514.43,50.45,514.59,48.55,514.68Z"/><path class="cls-1" d="M566.34,47.76h466.91V514.68c-1.9-.09-3.81-.25-5.71-.25H566.4V53.09C566.4,51.32,566.36,49.54,566.34,47.76Z"/><path class="cls-1" d="M515.46,1032.47H48.55V565.56c1.77,0,3.55.06,5.33.06H515.4v461.52C515.4,1028.92,515.44,1030.69,515.46,1032.47Z"/><path class="cls-1" d="M1033.25,565.56v466.91H566.34c0-1.78.06-3.55.06-5.33V565.62h461.52C1029.7,565.62,1031.48,565.58,1033.25,565.56Z"/></svg>