<svg id="Capa_1" data-name="Capa 1" xmlns="http://www.w3.org/2000/svg" viewBox="0 0 1080 1080"><title>Mesa de trabajo 1</title><path d="M48.55,514.68V47.76H515.46c0,1.78-.06,3.56-.06,5.34q0,227.87,0,455.75v5.57H54.26C52.36,514.43,50.45,514.59,48.55,514.68Z"/><path d="M566.34,47.76h466.91V514.68c-1.9-.09-3.81-.25-5.71-.25H566.4v-6q0-227.67,0-455.34C566.4,51.32,566.36,49.54,566.34,47.76Z"/><path d="M515.46,1032.47H48.55V565.56c1.77,0,3.55.06,5.33.06H515.4v5.86q0,227.84,0,455.66C515.4,1028.92,515.44,1030.69,515.46,1032.47Z"/><path d="M1033.25,565.56v466.91H566.34c0-1.78.06-3.55.06-5.33q0-227.84,0-455.66v-5.86h461.52C1029.7,565.62,1031.48,565.58,1033.25,565.56Z"/></svg>