<svg id="Capa_6" data-name="Capa 6" xmlns="http://www.w3.org/2000/svg" viewBox="0 0 227.29 188.16"><defs><style>.cls-1{fill:#6d6d6d;}</style></defs><title>Mesa de trabajo 1</title><path class="cls-1" d="M66.62,0h94.07a14.35,14.35,0,0,0,1.57.38,49,49,0,0,1,14.39,4c15.52,7.19,25.5,19,29.67,35.68.57,2.3.94,4.64,1.41,7v94.07c-.31,1.68-.59,3.36-.93,5a52,52,0,0,1-51.26,42H71.78a55,55,0,0,1-10-.89,51.81,51.81,0,0,1-41-40.36,56,56,0,0,1-1.09-11.11c-.09-27.79,0-55.59-.06-83.39a50.09,50.09,0,0,1,4.51-21.53c7.18-15.4,19-25.29,35.57-29.42C61.94.84,64.29.47,66.62,0ZM36.45,94.07h-.08v41a38.67,38.67,0,0,0,1.78,12.27A35.52,35.52,0,0,0,72.32,171.4c27.55-.16,55.11,0,82.67-.12a41.21,41.21,0,0,0,11.88-1.79c13.72-4.26,24.21-17.57,24.11-34.08-.16-27.56,0-55.12-.12-82.68a41.19,41.19,0,0,0-1.79-11.87C184.79,27.1,171.44,16.65,155,16.74c-27.56.17-55.12.07-82.68,0A34.39,34.39,0,0,0,55.53,20.6C43.84,27,37,36.78,36.55,50.17,36.1,64.79,36.45,79.44,36.45,94.07Z"/><path class="cls-1" d="M113.69,142.57A48.5,48.5,0,1,1,162.15,94v.1A48.61,48.61,0,0,1,113.69,142.57ZM145.33,94a31.6,31.6,0,1,0,0,.22Z"/><path class="cls-1" d="M164.2,55.9a12.08,12.08,0,1,1,12.26-12.25A12.28,12.28,0,0,1,164.2,55.9Z"/></svg>