<svg id="Capa_1" data-name="Capa 1" xmlns="http://www.w3.org/2000/svg" viewBox="0 0 823.73 595.28"><defs><style>.cls-1{fill:#6d6d6d;}</style></defs><title>Mesa de trabajo 1</title><path class="cls-1" d="M0,48.27V0H823.73V49.87c-3.15-.16-4.59,2.4-6.54,4.14-6,5.34-11.81,10.79-17.86,16-18.9,16.37-37.93,32.59-56.79,49-14.26,12.41-28.25,25.14-42.54,37.52-18.1,15.67-36.48,31-54.53,46.71-18.89,16.43-37.43,33.25-56.33,49.67-22.28,19.36-44.82,38.44-67.18,57.71-20.16,17.37-40,35.09-60.41,52.18a75.64,75.64,0,0,1-50.05,18c-22.17-.32-41.51-9.84-58-24.9-13.59-12.37-27.47-24.41-41.35-36.45-18.69-16.2-37.58-32.18-56.24-48.4-18.29-15.9-36.35-32.05-54.61-48-19.84-17.32-39.81-34.5-59.67-51.79-13.46-11.71-26.78-23.58-40.26-35.26-18.71-16.18-37.56-32.2-56.26-48.39C30,74.62,15,61.41,0,48.27Z"/><path class="cls-1" d="M823.73,543.79v51.49H0V543.79c2.22-1.42,4.59-2.67,6.65-4.3C25.83,524.37,45,509.15,64.12,494q32.49-25.67,65-51.25,36.89-29.11,73.71-58.3c21.66-17.14,43.51-34,64.82-51.58,5.13-4.22,8.58-3.73,12.85,0,13.59,12,27.27,23.8,40.73,35.91,14.68,13.19,29.67,25.8,48,33.83,28.38,12.41,56.52,12.32,85,.1,23-9.89,40.31-27.41,58.94-43.18,10.75-9.1,21.75-17.95,32-27.6,4-3.75,6.5-2.1,9.35.1,6.71,5.22,13.11,10.85,19.8,16.11q56,44.07,112.11,88.05Q755.09,490,823.73,543.79Z"/><path class="cls-1" d="M0,91.7c10,2.37,15.15,11.15,22.35,17.07,20.34,16.71,40,34.26,59.82,51.57,14.24,12.43,28.25,25.12,42.52,37.51,18.48,16,37.18,31.79,55.66,47.81,14.08,12.2,27.94,24.66,42,37q11.38,10,23,19.75c4.28,3.59,4.42,6-.41,9.78-29.94,23.32-59.58,47-89.41,70.5-31.91,25.11-63.95,50.05-95.85,75.17-18.78,14.78-37.41,29.74-56.1,44.63-1,.82-2,1.84-3.51,1.13Z"/><path class="cls-1" d="M823.73,502c-9.21-1-14.13-8.76-20.66-13.72-21.56-16.39-42.56-33.5-63.83-50.27Q702.67,409.14,666,380.43q-35.07-27.57-70.1-55.18c-6-4.74-12.14-9.43-18.3-14-4-3-3-5.51.25-8.28,9.28-8,18.44-16.11,27.7-24.13q22.31-19.31,44.68-38.56,28.68-24.75,57.35-49.53c14.06-12.23,27.92-24.69,42-36.9q28-24.32,56.23-48.38c5.72-4.9,9.94-11.81,17.93-13.76Z"/></svg>