<svg id="Capa_2" data-name="Capa 2" xmlns="http://www.w3.org/2000/svg" viewBox="0 0 914.38 910.01"><defs><style>.cls-1{fill:#6d6d6d;}</style></defs><title>Mesa de trabajo 1</title><path class="cls-1" d="M.43,172c-3.28-43.28,12.3-76.84,44.89-104.13C57.49,57.69,68,45.47,79.25,34.24,141.27-27.41,247-2.31,274.32,81.55a1263.29,1263.29,0,0,1,34.23,125.39c8.73,40.59-2.13,77.22-32.51,107.29-40.56,40.14-41,40.65-18.39,93,55.93,129.46,151.22,216.47,284.5,262.46,14.32,4.94,23.76,3.1,33.9-8.36,26.21-29.61,54.47-56.94,97.64-58.12,12.19-.33,24.91-.43,36.58,2.53,39.9,10.13,79.68,20.87,119.06,32.85,63,19.17,100.11,88.9,79.19,150.17-5.18,15.16-15.4,29.39-26,41.7-16,18.59-34.88,34.74-51.79,52.63-17.59,18.61-39.41,26.55-64.13,26.89C416.81,914.76,94.69,657,22.21,313.28,12.39,266.73,7.56,219.13.43,172Z"/></svg>