<svg id="Capa_4" data-name="Capa 4" xmlns="http://www.w3.org/2000/svg" viewBox="0 0 227.29 188.16"><title>Mesa de trabajo 1</title><path d="M70.6,140.91c-19.21-1.84-31.9-11.54-39-29.41A44.3,44.3,0,0,0,50,110.86c-23.54-6-33.48-26.55-32.73-41.54A43.43,43.43,0,0,0,35.7,74.26C26.57,67.5,20.8,59.14,18.47,48.52S17.94,28,23.21,18.46c22.63,26.67,51.17,41.36,86.14,43.78-.21-2.37-.51-4.57-.6-6.78-.72-16.88,6.1-29.9,20.4-38.8C144.65,7,165.76,9.37,178.92,22a4.65,4.65,0,0,0,5,1.34,86.22,86.22,0,0,0,21.8-8.47c.49-.28,1-.49,1.88-.9-3.19,9.77-9.1,17-17.21,22.63,7.77-.81,15.13-3,22.59-5.6-1.51,2-2.95,4.1-4.54,6a78.36,78.36,0,0,1-14.65,14,3,3,0,0,0-1.32,2.84c.34,36.1-12.41,66.86-38.33,91.9-16.14,15.58-35.65,24.94-57.71,29a125.11,125.11,0,0,1-33.74,1.58A117.48,117.48,0,0,1,10,158.65a4,4,0,0,1-.51-.58C32,160.09,52.24,154.66,70.6,140.91Z"/></svg>