<svg id="Capa_1" data-name="Capa 1" xmlns="http://www.w3.org/2000/svg" viewBox="0 0 409.85 595.28"><defs><style>.cls-1{fill:#6d6d6d;}</style></defs><title>Mesa de trabajo 1</title><path class="cls-1" d="M190.2,1.16h30.23c7.6,1.18,15.23,2.24,22.81,3.56,92.1,16.05,164.4,100.19,166.61,193.62,1.08,45.75-10.45,88-34,127.18q-76.78,127.92-153.15,256.1c-3.61,6-7.44,11.6-13.92,14.82h-9.3c-3.85-3.34-8.91-6-11.37-10.12C135.18,496.87,82,407.55,30,317.55,2.13,269.3-7.22,216.66,5.75,162.26,25.3,80.23,77.29,28.37,158.91,6.75,169.12,4,179.76,3,190.2,1.16ZM204.09,121.7a87.93,87.93,0,1,0,87.6,88.09A87.87,87.87,0,0,0,204.09,121.7Z"/></svg>